<svg width="48" height="48" viewBox="0 0 48 48" fill="none" xmlns="http://www.w3.org/2000/svg">
<path d="M48 24C48 37.2548 37.2548 48 24 48C10.7452 48 0 37.2548 0 24C0 10.7452 10.7452 0 24 0C37.2548 0 48 10.7452 48 24Z" fill="black"/>
<path d="M23.9333 30.35L32.1833 22.1L29.5708 19.5333L23.9333 25.1708L18.2958 19.5333L15.6833 22.1L23.9333 30.35ZM23.9333 42.2667C21.3972 42.2667 19.0139 41.7851 16.7833 40.822C14.5528 39.8589 12.6125 38.5529 10.9625 36.9042C9.3125 35.2542 8.00656 33.3139 7.04467 31.0833C6.08278 28.8528 5.60122 26.4694 5.6 23.9333C5.6 21.3972 6.08156 19.0139 7.04467 16.7833C8.00778 14.5528 9.31372 12.6125 10.9625 10.9625C12.6125 9.3125 14.5528 8.00656 16.7833 7.04467C19.0139 6.08278 21.3972 5.60122 23.9333 5.6C26.4694 5.6 28.8528 6.08156 31.0833 7.04467C33.3139 8.00778 35.2542 9.31372 36.9042 10.9625C38.5542 12.6125 39.8607 14.5528 40.8238 16.7833C41.7869 19.0139 42.2679 21.3972 42.2667 23.9333C42.2667 26.4694 41.7851 28.8528 40.822 31.0833C39.8589 33.3139 38.5529 35.2542 36.9042 36.9042C35.2542 38.5542 33.3139 39.8607 31.0833 40.8238C28.8528 41.7869 26.4694 42.2679 23.9333 42.2667ZM23.9333 38.6C28.0278 38.6 31.4958 37.1792 34.3375 34.3375C37.1792 31.4958 38.6 28.0278 38.6 23.9333C38.6 19.8389 37.1792 16.3708 34.3375 13.5292C31.4958 10.6875 28.0278 9.26667 23.9333 9.26667C19.8389 9.26667 16.3708 10.6875 13.5292 13.5292C10.6875 16.3708 9.26667 19.8389 9.26667 23.9333C9.26667 28.0278 10.6875 31.4958 13.5292 34.3375C16.3708 37.1792 19.8389 38.6 23.9333 38.6Z" fill="url(#paint0_linear_22_313)"/>
<defs>
<linearGradient id="paint0_linear_22_313" x1="24" y1="0.800021" x2="24" y2="49.2" gradientUnits="userSpaceOnUse">
<stop offset="0.0674362" stop-color="#FFF0B9"/>
<stop offset="0.506518" stop-color="#FFD233"/>
<stop offset="1"/>
</linearGradient>
</defs>
</svg>
